HIERARCHY
ROOT Hips
{
  OFFSET 5.80788e-005 67.184 3.4734
  CHANNELS 6 Xposition Yposition Zposition Zrotation Xrotation Yrotation
  JOINT Chest
  {
    OFFSET 0 8.7983 -4.7612
    CHANNELS 3 Zrotation Xrotation Yrotation
    JOINT Chest2
    {
      OFFSET 0 8.0291 0.4195
      CHANNELS 3 Zrotation Xrotation Yrotation
      JOINT Chest3
      {
        OFFSET 0 9.9351 -2.2114
        CHANNELS 3 Zrotation Xrotation Yrotation
        JOINT Neck
        {
          OFFSET 0 22.3885 -0.4656
          CHANNELS 3 Zrotation Xrotation Yrotation
          JOINT Head
          {
            OFFSET -0.0001 12.643 3.4389
            CHANNELS 3 Zrotation Xrotation Yrotation
            End Site
            {
              OFFSET 0.0001 17.6655 0.5274
            }
          }
        }
        JOINT LeftCollar
        {
          OFFSET 2.2603 21.606 7.4023
          CHANNELS 3 Zrotation Xrotation Yrotation
          JOINT LeftShoulder
          {
            OFFSET 13.5163 -1.1332 -5.0146
            CHANNELS 3 Zrotation Xrotation Yrotation
            JOINT LeftElbow
            {
              OFFSET -0.0995 -28.05 -0.2431
              CHANNELS 3 Zrotation Xrotation Yrotation
              JOINT LeftWrist
              {
                OFFSET 0.0679 -23.3996 -0.1402
                CHANNELS 3 Zrotation Xrotation Yrotation
                JOINT LeftFinger1
                {
                  OFFSET 0.7932 -9.069 2.5189
                  CHANNELS 3 Zrotation Xrotation Yrotation
                  JOINT LeftFinger11
                  {
                    OFFSET -0.8272 -3.3923 0.5977
                    CHANNELS 3 Zrotation Xrotation Yrotation
                    JOINT LeftFinger12
                    {
                      OFFSET -0.5649 -2.3158 0.4082
                      CHANNELS 3 Zrotation Xrotation Yrotation
                      End Site
                      {
                        OFFSET -0.4919 -1.6479 0.2673
                      }
                    }
                  }
                }
                JOINT LeftFinger2
                {
                  OFFSET 0.9159 -9.2044 0.2193
                  CHANNELS 3 Zrotation Xrotation Yrotation
                  JOINT LeftFinger21
                  {
                    OFFSET 0.0117 -4.1944 -0.0248
                    CHANNELS 3 Zrotation Xrotation Yrotation
                    JOINT LeftFinger22
                    {
                      OFFSET 0.0071 -2.3249 -0.0142
                      CHANNELS 3 Zrotation Xrotation Yrotation
                      End Site
                      {
                        OFFSET -0.1475 -2.0882 0.0028
                      }
                    }
                  }
                }
                JOINT LeftFinger3
                {
                  OFFSET 0.6113 -8.7231 -2.0637
                  CHANNELS 3 Zrotation Xrotation Yrotation
                  JOINT LeftFinger31
                  {
                    OFFSET -0.1927 -3.8059 -0.2383
                    CHANNELS 3 Zrotation Xrotation Yrotation
                    JOINT LeftFinger32
                    {
                      OFFSET -0.1091 -2.1688 -0.1362
                      CHANNELS 3 Zrotation Xrotation Yrotation
                      End Site
                      {
                        OFFSET -0.2358 -1.9176 -0.0906
                      }
                    }
                  }
                }
                JOINT LeftFinger4
                {
                  OFFSET -0.6151 -8.0947 -3.5641
                  CHANNELS 3 Zrotation Xrotation Yrotation
                  JOINT LeftFinger41
                  {
                    OFFSET -0.4882 -2.341 -0.6462
                    CHANNELS 3 Zrotation Xrotation Yrotation
                    JOINT LeftFinger42
                    {
                      OFFSET -0.3575 -1.7167 -0.4742
                      CHANNELS 3 Zrotation Xrotation Yrotation
                      End Site
                      {
                        OFFSET -0.4187 -1.5237 -0.3496
                      }
                    }
                  }
                }
                JOINT LeftFinger0
                {
                  OFFSET -1.42 -1.8761 1.4223
                  CHANNELS 3 Zrotation Xrotation Yrotation
                  JOINT LeftFinger01
                  {
                    OFFSET -1.1471 -3.4929 2.6334
                    CHANNELS 3 Zrotation Xrotation Yrotation
                    JOINT LeftFinger02
                    {
                      OFFSET -0.823 -2.3 1.6571
                      CHANNELS 3 Zrotation Xrotation Yrotation
                      End Site
                      {
                        OFFSET -0.5822 -1.6914 1.1582
                      }
                    }
                  }
                }
              }
            }
          }
        }
        JOINT RightCollar
        {
          OFFSET -2.2603 21.606 7.4023
          CHANNELS 3 Zrotation Xrotation Yrotation
          JOINT RightShoulder
          {
            OFFSET -13.5187 -1.1334 -5.0155
            CHANNELS 3 Zrotation Xrotation Yrotation
            JOINT RightElbow
            {
              OFFSET 0.0994 -28.0499 -0.2431
              CHANNELS 3 Zrotation Xrotation Yrotation
              JOINT RightWrist
              {
                OFFSET -0.0679 -23.3996 -0.1402
                CHANNELS 3 Zrotation Xrotation Yrotation
                JOINT RightFinger1
                {
                  OFFSET -0.7932 -9.0691 2.5189
                  CHANNELS 3 Zrotation Xrotation Yrotation
                  JOINT RightFinger11
                  {
                    OFFSET 0.8272 -3.3923 0.5977
                    CHANNELS 3 Zrotation Xrotation Yrotation
                    JOINT RightFinger12
                    {
                      OFFSET 0.565 -2.3158 0.4082
                      CHANNELS 3 Zrotation Xrotation Yrotation
                      End Site
                      {
                        OFFSET 0.4919 -1.6479 0.2673
                      }
                    }
                  }
                }
                JOINT RightFinger2
                {
                  OFFSET -0.916 -9.2044 0.2193
                  CHANNELS 3 Zrotation Xrotation Yrotation
                  JOINT RightFinger21
                  {
                    OFFSET -0.0117 -4.1944 -0.0248
                    CHANNELS 3 Zrotation Xrotation Yrotation
                    JOINT RightFinger22
                    {
                      OFFSET -0.0071 -2.3249 -0.0142
                      CHANNELS 3 Zrotation Xrotation Yrotation
                      End Site
                      {
                        OFFSET 0.1475 -2.0882 0.0028
                      }
                    }
                  }
                }
                JOINT RightFinger3
                {
                  OFFSET -0.6113 -8.7231 -2.0637
                  CHANNELS 3 Zrotation Xrotation Yrotation
                  JOINT RightFinger31
                  {
                    OFFSET 0.1927 -3.8059 -0.2383
                    CHANNELS 3 Zrotation Xrotation Yrotation
                    JOINT RightFinger32
                    {
                      OFFSET 0.1091 -2.1688 -0.1362
                      CHANNELS 3 Zrotation Xrotation Yrotation
                      End Site
                      {
                        OFFSET 0.2358 -1.9176 -0.0906
                      }
                    }
                  }
                }
                JOINT RightFinger4
                {
                  OFFSET 0.6151 -8.0947 -3.564
                  CHANNELS 3 Zrotation Xrotation Yrotation
                  JOINT RightFinger41
                  {
                    OFFSET 0.4882 -2.341 -0.6462
                    CHANNELS 3 Zrotation Xrotation Yrotation
                    JOINT RightFinger42
                    {
                      OFFSET 0.3574 -1.7166 -0.4742
                      CHANNELS 3 Zrotation Xrotation Yrotation
                      End Site
                      {
                        OFFSET 0.4187 -1.5237 -0.3496
                      }
                    }
                  }
                }
                JOINT RightFinger0
                {
                  OFFSET 1.4199 -1.8761 1.4221
                  CHANNELS 3 Zrotation Xrotation Yrotation
                  JOINT RightFinger01
                  {
                    OFFSET 1.1472 -3.4929 2.6336
                    CHANNELS 3 Zrotation Xrotation Yrotation
                    JOINT RightFinger02
                    {
                      OFFSET 0.8229 -2.3 1.6571
                      CHANNELS 3 Zrotation Xrotation Yrotation
                      End Site
                      {
                        OFFSET 0.5822 -1.6914 1.1582
                      }
                    }
                  }
                }
              }
            }
          }
        }
      }
    }
  }
  JOINT RightHip
  {
    OFFSET -9.412 3.9771 -0.7758
    CHANNELS 3 Zrotation Xrotation Yrotation
    JOINT RightKnee
    {
      OFFSET -0.7531 -40.938 0
      CHANNELS 3 Zrotation Xrotation Yrotation
      JOINT RightAnkle
      {
        OFFSET 0 -40.1986 0
        CHANNELS 3 Zrotation Xrotation Yrotation
        JOINT RightToe
        {
          OFFSET 0 -4.4182 9.239
          CHANNELS 3 Zrotation Xrotation Yrotation
          End Site
          {
            OFFSET 0 0 6.1981
          }
        }
      }
    }
  }
  JOINT LeftHip
  {
    OFFSET 9.4119 3.9773 -0.7758
    CHANNELS 3 Zrotation Xrotation Yrotation
    JOINT LeftKnee
    {
      OFFSET 0.7532 -40.9383 0
      CHANNELS 3 Zrotation Xrotation Yrotation
      JOINT LeftAnkle
      {
        OFFSET 0 -40.1986 0
        CHANNELS 3 Zrotation Xrotation Yrotation
        JOINT LeftToe
        {
          OFFSET 0 -4.4182 9.239
          CHANNELS 3 Zrotation Xrotation Yrotation
          End Site
          {
            OFFSET 0 0 6.1981
          }
        }
      }
    }
  }
}
MOTION
Frames:	5
Frame Time:	0.0333333
0.976372 18.5253 -4.18497 -6.64862e-015 3.00291 180 -0.489995 -7.96697 -0.467266 -1.06198 -15.9293 -1.01911 -1.06198 -15.9294 -1.01912 -10.5679 -16.7196 -2.98505 1.71711e-006 8.78778 -1.05982e-006 2.99337 4.23803 11.8523 24.2418 30.334 110.045 -0.967362 0.631183 -73.9665 60.9272 -3.44121 -8.31418 1.76556e-031 -6.36111e-015 1.59028e-015 3.53113e-031 -6.36111e-015 3.18055e-015 3.18055e-015 -9.54166e-015 4.77083e-015 1.76556e-031 -6.36111e-015 1.59028e-015 -0.0128128 0.00231734 8.59245e-005 -1.76556e-031 -3.18055e-015 -3.18055e-015 1.76556e-031 -6.36111e-015 1.59028e-015 -0.0160339 0.00298955 0.000861889 -9.54166e-015 3.49861e-014 3.18055e-015 1.76556e-031 -6.36111e-015 1.59028e-015 -0.012594 0.00311794 0.0028313 3.18055e-015 2.22639e-014 -4.77083e-015 1.76556e-031 -6.36111e-015 1.59028e-015 3.53113e-031 -6.36111e-015 3.18055e-015 3.18055e-015 -9.54166e-015 4.77083e-015 -6.25798 4.18808 -16.6098 -21.8377 29.0912 -106.491 -0.323833 0.400632 74.0056 -63.2646 -4.96928 9.18219 -5.02981e-006 -6.9926e-006 3.30399e-006 -7.57507e-006 9.71546e-006 -3.25939e-006 -6.36111e-015 2.0821e-006 6.36111e-015 -5.02981e-006 -6.9926e-006 3.30399e-006 0.0129607 0.002326 -7.92184e-005 -8.8621e-006 -3.68576e-007 -2.32636e-006 -5.02981e-006 -6.9926e-006 3.30399e-006 0.0163422 0.0030384 -0.000869718 -1.40372e-006 1.35015e-006 1.36279e-006 -5.02981e-006 -6.9926e-006 3.30399e-006 0.0145744 0.00367804 -0.00325349 2.64834e-031 3.18055e-015 -4.77083e-015 -5.02981e-006 -6.9926e-006 3.30399e-006 -7.57507e-006 9.71546e-006 -3.25939e-006 -6.36111e-015 2.0821e-006 6.36111e-015 -34.5554 -13.1226 46.7945 123.374 41.0182 -154.985 -16.2653 39.0487 61.646 -1.46726e-005 1.19318e-005 6.10517e-007 36.5834 -13.4248 -47.4784 -121.457 41.6255 153.698 19.3696 39.755 -64.9945 -1.10325e-006 -3.63632e-006 -1.11822e-006 
0.97614 18.1855 -3.94075 -6.71408e-015 2.46959 180 -0.489973 -7.82481 -0.465653 -1.05988 -15.645 -1.01398 -1.05989 -15.6451 -1.01398 -10.5447 -16.7252 -2.97897 -4.29531e-006 8.76377 -7.75793e-007 3.25724 3.64674 11.7149 24.0303 30.3672 110.154 -0.95161 0.62834 -73.9842 60.6682 -3.81074 -8.15427 1.29531e-006 7.32004e-007 -5.2748e-007 1.16063e-006 2.52003e-006 -1.0629e-006 1.33789e-006 -1.17346e-006 -5.80893e-006 1.29531e-006 7.32004e-007 -5.2748e-007 -0.0128268 0.00232764 8.99151e-005 -4.38134e-006 2.54063e-006 -1.10575e-005 1.29531e-006 7.32004e-007 -5.2748e-007 -0.0160585 0.00300158 0.000860188 9.0652e-006 -3.7513e-006 1.52476e-006 1.29531e-006 7.32004e-007 -5.2748e-007 -0.0125595 0.00311971 0.00283059 1.77326e-007 -1.1728e-006 -4.74598e-006 1.29531e-006 7.32004e-007 -5.2748e-007 1.16063e-006 2.52003e-006 -1.0629e-006 1.33789e-006 -1.17346e-006 -5.80893e-006 -6.39753 3.60835 -16.5202 -21.8421 29.0903 -106.489 -0.332249 0.399148 74.0237 -62.9302 -5.26157 8.9447 -2.42749e-006 3.09874e-006 1.45552e-006 -2.83557e-007 -8.34663e-007 8.5836e-007 -2.42749e-006 3.84446e-006 1.45552e-006 -2.42749e-006 3.09874e-006 1.45552e-006 0.0129586 0.00232582 -9.61457e-005 -5.13814e-006 7.29457e-006 3.7692e-006 -2.42749e-006 3.09874e-006 1.45552e-006 0.0163302 0.00304233 -0.000875854 -1.19543e-005 3.69379e-006 -4.55115e-006 -2.42749e-006 3.09874e-006 1.45552e-006 0.0145976 0.00368133 -0.00326998 -5.79131e-006 1.38468e-006 2.52408e-008 -2.42749e-006 3.09874e-006 1.45552e-006 -2.83557e-007 -8.34663e-007 8.5836e-007 -2.42749e-006 3.84446e-006 1.45552e-006 -34.8835 -13.7878 46.5568 124.042 40.8507 -155.411 -16.1908 38.794 61.9145 -5.84899e-006 -8.1226e-007 7.88944e-007 36.9151 -14.0921 -47.2344 -122.127 41.4716 154.129 19.2957 39.5114 -65.2601 5.8489e-006 3.67718e-006 -7.89731e-007 
0.975844 17.7615 -3.63505 -6.79583e-015 1.80302 180 -0.489957 -7.64711 -0.463642 -1.05732 -15.2896 -1.0076 -1.05733 -15.2897 -1.0076 -10.5215 -16.7309 -2.97289 2.31542e-006 8.73979 -1.70466e-006 3.58462 2.90628 11.547 23.7661 30.4082 110.291 -0.931521 0.624906 -74.006 60.3454 -4.27358 -7.95621 1.27222e-014 -3.6881e-006 1.27222e-014 9.54166e-015 9.54166e-015 1.11319e-014 2.31504e-006 9.01469e-007 -2.14736e-006 1.27222e-014 -3.6881e-006 1.27222e-014 -0.0128128 0.00232794 8.80032e-005 -1.26892e-006 -2.52131e-006 5.26971e-007 1.27222e-014 -3.6881e-006 1.27222e-014 -0.0160518 0.00300091 0.000861608 3.18055e-015 -6.36111e-015 -4.77083e-015 1.27222e-014 -3.6881e-006 1.27222e-014 -0.0126079 0.0031277 0.00283043 -1.26891e-006 6.2306e-006 5.27103e-007 1.27222e-014 -3.6881e-006 1.27222e-014 9.54166e-015 9.54166e-015 1.11319e-014 2.31504e-006 9.01469e-007 -2.14736e-006 -6.57037 2.88296 -16.4105 -21.8467 29.0892 -106.486 -0.343118 0.397375 74.0462 -62.5132 -5.62858 8.64958 -1.28138e-006 8.26726e-007 9.53811e-007 -3.18055e-015 -6.36111e-015 -1.59028e-015 1.28138e-006 -8.26726e-007 -9.53811e-007 -1.28138e-006 8.26726e-007 9.53811e-007 0.0129615 0.00231878 -7.99423e-005 -8.82781e-032 -3.18055e-015 -1.59028e-015 -1.28138e-006 8.26726e-007 9.53811e-007 0.0163116 0.00302894 -0.000869884 -3.18055e-015 -9.54166e-015 3.18055e-015 -1.28138e-006 8.26726e-007 9.53811e-007 0.0145887 0.00367872 -0.00325603 -1.02724e-006 5.19737e-006 -8.33383e-006 -1.28138e-006 8.26726e-007 9.53811e-007 -3.18055e-015 -6.36111e-015 -1.59028e-015 1.28138e-006 -8.26726e-007 -9.53811e-007 -35.2989 -14.6201 46.2559 124.872 40.6367 -155.94 -16.0952 38.4754 62.2484 -3.64405e-006 4.25973e-007 3.02577e-006 37.3353 -14.9268 -46.9256 -122.96 41.2745 154.664 19.2009 39.2066 -65.5905 -6.08303e-006 5.16896e-007 1.13674e-006 
0.975574 17.3808 -3.35952 -6.86934e-015 1.20316 180 -0.489944 -7.48713 -0.46183 -1.05506 -14.9697 -1.00188 -1.05506 -14.9698 -1.00188 -10.4983 -16.7365 -2.96679 2.99244e-006 8.71579 3.56954e-008 3.87755 2.23879 11.3995 23.5277 30.4448 110.414 -0.913575 0.621688 -74.0255 60.0562 -4.69135 -7.78019 -3.18055e-015 6.36111e-015 -3.18055e-015 -3.18055e-015 3.18055e-015 -0 -3.18055e-015 9.54166e-015 1.59028e-015 -3.18055e-015 6.36111e-015 -3.18055e-015 -0.012808 0.0023189 9.6001e-005 -2.06589e-006 -3.5234e-006 -7.3401e-006 -3.18055e-015 6.36111e-015 -3.18055e-015 -0.0160569 0.00299653 0.000854244 1.02054e-005 -5.37261e-006 5.62401e-006 -3.18055e-015 6.36111e-015 -3.18055e-015 -0.0125841 0.00312295 0.00283332 3.18055e-015 0 -0 -3.18055e-015 6.36111e-015 -3.18055e-015 -3.18055e-015 3.18055e-015 -0 -3.18055e-015 9.54166e-015 1.59028e-015 -6.72483 2.22964 -16.3135 -21.8515 29.0878 -106.484 -0.353195 0.395859 74.0664 -62.1393 -5.96096 8.38617 3.18055e-015 6.36111e-015 -0 3.18055e-015 0 3.18055e-015 3.18055e-015 0 3.18055e-015 3.18055e-015 6.36111e-015 -0 0.0129599 0.00232058 -8.12086e-005 8.82781e-032 -3.18055e-015 1.59028e-015 3.18055e-015 6.36111e-015 -0 0.0163384 0.00303972 -0.000875576 -9.54166e-015 1.59028e-014 -3.18055e-015 3.18055e-015 6.36111e-015 -0 0.0145621 0.00367233 -0.00325641 -3.12226e-006 1.52743e-006 6.6245e-006 3.18055e-015 6.36111e-015 -0 3.18055e-015 0 3.18055e-015 3.18055e-015 0 3.18055e-015 -35.6772 -15.3673 45.9757 125.616 40.4388 -156.412 -16.0072 38.1884 62.5479 0 0 -6.36111e-015 37.7182 -15.6762 -46.6384 -123.707 41.0917 155.142 19.1136 38.9323 -65.8868 -9.54166e-015 6.18942e-008 -3.18055e-015 
0.975299 17.0008 -3.08359 -6.94285e-015 0.603088 180 -0.489934 -7.32713 -0.460017 -1.05282 -14.6498 -0.996179 -1.05283 -14.6498 -0.996182 -10.4751 -16.7422 -2.9607 3.15169e-006 8.69179 -3.73516e-007 4.16876 1.57027 11.2554 23.2894 30.4807 110.538 -0.895215 0.618525 -74.0448 59.7681 -5.11015 -7.60613 1.59028e-015 -6.36111e-015 -3.18055e-015 -6.85202e-008 5.92569e-006 -5.68504e-007 2.4391e-006 -5.00493e-006 -1.04997e-006 1.59028e-015 -6.36111e-015 -3.18055e-015 -0.0128312 0.00232894 8.77714e-005 7.06885e-006 -7.99429e-006 -1.0749e-005 1.59028e-015 -6.36111e-015 -3.18055e-015 -0.0160519 0.00300704 0.000849206 -3.18055e-015 6.36111e-015 3.18055e-015 1.59028e-015 -6.36111e-015 -3.18055e-015 -0.0126065 0.003131 0.00282612 1.15095e-006 -1.31096e-007 -1.09339e-006 1.59028e-015 -6.36111e-015 -3.18055e-015 -6.85202e-008 5.92569e-006 -5.68504e-007 2.4391e-006 -5.00493e-006 -1.04997e-006 -6.87817 1.57581 -16.2183 -21.8559 29.0869 -106.482 -0.362976 0.394144 74.0865 -61.7666 -6.29523 8.12475 5.34144e-007 6.36313e-006 -4.70077e-006 -1.05163e-006 8.00329e-007 5.42355e-007 -1.49735e-006 1.37417e-006 1.40797e-006 5.34144e-007 6.36313e-006 -4.70077e-006 0.0129411 0.00230758 -8.7639e-005 1.49642e-006 -7.36611e-007 -1.4079e-006 5.34144e-007 6.36313e-006 -4.70077e-006 0.0163404 0.00303363 -0.000868847 1.27438e-006 -2.17487e-006 -9.75087e-007 5.34144e-007 6.36313e-006 -4.70077e-006 0.0145665 0.00367935 -0.00326699 -6.36111e-015 -1.94514e-006 1.59028e-015 5.34144e-007 6.36313e-006 -4.70077e-006 -1.05163e-006 8.00329e-007 5.42355e-007 -1.49735e-006 1.37417e-006 1.40797e-006 -36.0601 -16.1133 45.6882 126.356 40.2362 -156.881 -15.9173 37.9013 62.8465 9.15572e-006 -4.9678e-006 2.57122e-006 38.1058 -16.4242 -46.3437 -124.45 40.9043 155.616 19.0246 38.6578 -66.1823 3.33332e-007 6.28129e-006 2.38482e-006 
